PathFileType	4	(X/Y/Z)	Demo_SinglePerson_0-99_filt_butterworth.trc
DataRate	CameraRate	NumFrames	NumMarkers	Units	OrigDataRate	OrigDataStartFrame	OrigNumFrames
60	60	9	22	m	60	0	100
Frame#	Time	Hip			RHip			RKnee			RAnkle			RBigToe			RSmallToe			RHeel			LHip			LKnee			LAnkle			LBigToe			LSmallToe			LHeel			Neck			Head			Nose			RShoulder			RElbow			RWrist			LShoulder			LElbow			LWrist			
		X1	Y1	Z1	X2	Y2	Z2	X3	Y3	Z3	X4	Y4	Z4	X5	Y5	Z5	X6	Y6	Z6	X7	Y7	Z7	X8	Y8	Z8	X9	Y9	Z9	X10	Y10	Z10	X11	Y11	Z11	X12	Y12	Z12	X13	Y13	Z13	X14	Y14	Z14	X15	Y15	Z15	X16	Y16	Z16	X17	Y17	Z17	X18	Y18	Z18	X19	Y19	Z19	X20	Y20	Z20	X21	Y21	Z21	X22	Y22	Z22	
0	0.0	0.017810409615475673	0.9037475669474471	-1.4475056383606308	-0.07618112551960457	0.8997217652114364	-1.4315998323727466	-0.04109335997682923	0.49753275283536214	-1.4465267467000882	0.029554747307051894	0.15218415625759427	-1.5942073291193073	0.03102648097086693	0.08149367118876356	-1.5562855582175272	-0.029360182650299434	0.07724039611841312	-1.48134691905361	0.05636694065271805	0.10764446499848912	-1.6323139124411878	0.11717560476296524	0.9014130881377476	-1.4240418449338004	0.033911046279925604	0.5862414375574035	-1.1454616935617281	0.005019079413806334	0.15823270042533727	-1.1714805878339147	-0.04152853563186961	0.11046012270629982	-0.9929438212391908	0.011419905614988663	0.11155368063341937	-1.0108740593112808	0.001578619497785072	0.09470976586640559	-1.1960323681475404	-0.04419614506983041	1.4694473729454622	-1.3957317960007323	-0.0716109479916559	1.7006076624348134	-1.2676799097771392	-0.072613694881599	1.5407690196697141	-1.2248540629761668	-0.20730419477724063	1.3715829034238134	-1.4638643996804523	-0.29330288886380307	1.1105224543319179	-1.5298882901071051	-0.3680546773039729	0.9032914685381692	-1.3671141817393524	0.1467437506125911	1.4050988121004975	-1.4333121436601308	0.2715167619275117	1.155548082452686	-1.470048245297221	0.35450061689474655	0.9216569470705167	-1.4307342531399547
1	0.0166666666666666	0.015213907464617092	0.9015685088721499	-1.4388868145038034	-0.0788006216559056	0.89655120693915	-1.4257054105740439	-0.041303578145122116	0.4919239528346546	-1.4442617874710144	0.029019175377917195	0.1530306866352176	-1.5934636492413972	0.02478457459713399	0.07508962179909708	-1.5053048980748955	-0.026289366331596807	0.07198882314086755	-1.4982346174850838	0.05290979803397203	0.10858644376467164	-1.6325100139415607	0.12350384842029673	0.8912046174066575	-1.4170020530282246	0.03622923310140216	0.5640557550497511	-1.161412949197608	0.0034394736127960884	0.15530669629196786	-1.1685326690623787	-0.04320492150445796	0.10726523138292164	-0.9903146871325545	0.010470403424740258	0.10664054786796845	-1.0097054207225382	0.0002950555793772158	0.09305031639556527	-1.195077031733516	-0.03789097628871423	1.4712738043112628	-1.3859767455405245	-0.06230624862051527	1.6977592785769753	-1.2603145355649286	-0.06329899704267739	1.541343786779691	-1.2144663635867075	-0.20236737844629468	1.3741522805447515	-1.4571366780647392	-0.29242144327936237	1.1158787893680555	-1.5175105391470236	-0.3704659222490724	0.9127971944398451	-1.3552763713516904	0.14893993606821243	1.4047058013285683	-1.4319768693172763	0.27464806290167154	1.1537775950414537	-1.4588753957835434	0.3558558317890963	0.9196829091008778	-1.422533776039131
2	0.0333333333333333	0.012372994556672939	0.9000060788725521	-1.430171365567897	-0.08170213765007071	0.8947312314523392	-1.4189245793141934	-0.04179997848074175	0.4877085919911687	-1.4415207084142967	0.028531802473988326	0.15405317845059513	-1.5929699055204818	0.01764085763202208	0.06970441615145358	-1.4634021850606875	-0.025299969029474356	0.06774018489704287	-1.510003802073274	0.050116409984444124	0.10993918420399823	-1.6327832558435666	0.12647621794241182	0.8840235197482903	-1.4096415433695264	0.036502738949158564	0.5460379567287188	-1.1726250257264312	0.0016518912446624044	0.1527120919491279	-1.1656959217903522	-0.04454742416441534	0.10446724634013704	-0.9880777652711303	0.009699409673114582	0.10228810266898912	-1.0088829682407763	-0.001174694346828373	0.0914773901820296	-1.194118079926854	-0.031193193395217127	1.4727707437826845	-1.3765284872939172	-0.052396053176721094	1.6959299638239838	-1.2524018771351701	-0.05420876275167495	1.5419385967661505	-1.204245040220935	-0.1972736285365791	1.3771113891925335	-1.4498752193713578	-0.2919218346579978	1.1220570389960471	-1.505758655290815	-0.3733655199937105	0.9228870385230532	-1.3435532127616685	0.15186897874095007	1.4038630417141498	-1.4292037488639926	0.27781379390167904	1.1513544116748815	-1.4478100207903875	0.35694097909285744	0.9172012624479482	-1.4137346150205203
3	0.05	0.009163073402990286	0.8993139372910802	-1.4210379776572852	-0.08490710067824107	0.8947264155027198	-1.4106898458847457	-0.042778594530100696	0.48544275303910267	-1.4380069517889487	0.028015945974355912	0.15538381304011264	-1.5928374139759895	0.010074046951168501	0.06588328764448123	-1.4353317631643792	-0.02681713738033633	0.06496002756163456	-1.515166613932606	0.04814676379750362	0.1119035924722433	-1.633074082363241	0.12454669076737668	0.8810269276329206	-1.4018809433301271	0.03403120974813691	0.5346030594294016	-1.176847668974178	-0.0003763378928921748	0.15079147490583872	-1.1630797566300761	-0.04536906316267376	0.10234184075143771	-0.9863505212420057	0.009163236970844379	0.09882989415512633	-1.0085116255916426	-0.0028675967572892665	0.09022249436219666	-1.193090136231912	-0.023842857718093205	1.4738131581762899	-1.3674917256214734	-0.04143796998214926	1.6955012466629118	-1.2436125103783926	-0.045120594290179866	1.5426844617432065	-1.194259289477331	-0.19188008043245283	1.3807099986999423	-1.4417372371715007	-0.29200369640979984	1.1294711196143608	-1.4950835143443684	-0.37692691239682313	0.9339963351729033	-1.3317860562834676	0.15609579820544142	1.4022283825918451	-1.424015625530768	0.2809939118988266	1.147999188385234	-1.4370113325338083	0.35757422563620944	0.9140441298232429	-1.4041146471874664
4	0.0666666666666666	0.005637019592904952	0.8993964439251233	-1.4109744686774184	-0.08821178532836071	0.8961049152945599	-1.4008667706145603	-0.04431469651159157	0.48481743042677644	-1.4336334490874054	0.02732155933965615	0.1570520069725579	-1.5929991340395235	0.003778391694996732	0.06351268853736794	-1.4216377253478527	-0.02977230651811329	0.06351851730351112	-1.5158558691243909	0.04667592497282097	0.11445890686526818	-1.6332469771954143	0.11826899342495477	0.8814287337912895	-1.3940005705763288	0.029589675512814276	0.5305239625303545	-1.1740023459782443	-0.0024820454372695942	0.1497839886803819	-1.1607605094449531	-0.04567065492388368	0.10093387136218794	-0.9849954386751965	0.008823230045194287	0.09633324265145464	-1.0084653622003172	-0.004629607711458332	0.08959086915304752	-1.191987312579389	-0.01581135766998916	1.474470680733689	-1.3587585937992381	-0.029295053308354274	1.6961295880594847	-1.233992166307609	-0.0355875849971368	1.5437232003297345	-1.18447584634246	-0.18611648505791537	1.3849555802985043	-1.432693400306971	-0.2927109225415485	1.13788496877523	-1.4858444088452465	-0.38106943065337506	0.9464680483077766	-1.3195012594258422	0.16177012773124633	1.3997444622282365	-1.4163883598707554	0.28413340586188146	1.1438724262467208	-1.4266399907875353	0.3577835808283953	0.9103120839163867	-1.3938518488170921
5	0.0833333333333333	0.001961809165454526	0.9001859430081438	-1.3991942228828966	-0.09141333543192068	0.898252520873886	-1.389506084172569	-0.04645434261195678	0.485344360636881	-1.4283771373869911	0.026383004881119974	0.15911705875170196	-1.593231807042497	0.00015256998790787602	0.062321037509790095	-1.4203974086409301	-0.032977352086973645	0.06321350108974419	-1.5147643875829642	0.04538410103139634	0.11768017186391495	-1.6332812915893828	0.10916731333504669	0.8838808328708131	-1.386062606408288	0.024762028254211536	0.5320884372142306	-1.165681204253013	-0.004420011384933529	0.14971911640556132	-1.1587697677921898	-0.04560473479728688	0.10010346937030341	-0.9838148468500117	0.008570272421754946	0.09475039624000374	-1.008430080836978	-0.006186929422235264	0.0897566786078488	-1.1908016848981575	-0.007213683084078049	1.474857283867172	-1.3500472068801288	-0.01600995588384369	1.6972308094997892	-1.2238011272297955	-0.025279561600123266	1.5449985552151961	-1.1747925099363739	-0.17995454164700425	1.389652701270362	-1.4229242338551154	-0.2939396835491918	1.1469723305445663	-1.4779201347618285	-0.3856730087269436	0.9608617066567056	-1.305813194388683	0.16880530331014879	1.3964936422861056	-1.4066219857783995	0.2872093992409056	1.139363507456812	-1.4167587318062702	0.35779064102278585	0.9061151921421396	-1.3831280759720717
6	0.1	-0.0016832942797271617	0.9018738893308592	-1.3846716295711787	-0.09445843776018856	0.9008942129867369	-1.3766859802877862	-0.04928845572500835	0.48678791121843523	-1.4221948720099826	0.025292234936497005	0.16176455818588276	-1.593281248279698	-0.0006343470819406555	0.06232989794228223	-1.4282371163107477	-0.03586382553815709	0.06411155836335662	-1.5130560659102223	0.04428723485724518	0.12185638420861099	-1.6332933772908893	0.09873331497151172	0.8874631679132311	-1.3775458437688028	0.020995853389150165	0.5347930253007387	-1.1550507273249548	-0.005988126445386843	0.15043388352122902	-1.157129842192872	-0.04536844907715296	0.09964286764005593	-0.9827163556729813	0.00825424962981731	0.09399985837664128	-1.0080504394821197	-0.007282849089496157	0.09064078865256132	-1.1894028515723345	0.0017885968675345702	1.4750219928318224	-1.3410527919230861	-0.0017230532688629506	1.698417927009142	-1.2131875451288092	-0.014137959012449184	1.546160125149809	-1.1651586183797664	-0.1733724789034846	1.3945401629576721	-1.4126910562779573	-0.2953886906914499	1.156924408809838	-1.4704264080549956	-0.390557857398741	0.9777681730940009	-1.2896986502430228	0.17707440994973436	1.3925160504473142	-1.394703525816254	0.2902440946274746	1.1348378617160901	-1.4072842118300564	0.35781390842011757	0.9014645254508481	-1.3718782156838132
7	0.1166666666666666	-0.005195788159235697	0.904647233786234	-1.3665473275553863	-0.09745628532747294	0.9039639621260086	-1.3625647988306717	-0.05297192688302041	0.4889643303510571	-1.4149777975152267	0.02411628164522085	0.16517310112711198	-1.5929450876828142	0.0005249799369272114	0.06355946669911687	-1.4409294438133151	-0.03825156207438823	0.0662016205872286	-1.511141391780095	0.043451576599687375	0.12721316808380828	-1.6332619326080553	0.08812784984907697	0.8915734238535975	-1.3678313382091594	0.018839361944447998	0.5342504516708726	-1.1455080884545186	-0.00709402662684195	0.15159743660195912	-1.1558041834010297	-0.04512712459761109	0.0992985012749062	-0.9817712632444593	0.0077685298155021325	0.09384217052182581	-1.007165332919847	-0.007787253922070618	0.09194026726469154	-1.1877003923623861	0.011058736845872899	1.474910170515748	-1.3315780889565756	0.013342269388393318	1.6994248109712449	-1.202099671827253	-0.0023451254009081175	1.5466648771686318	-1.1555273510328472	-0.16630997866590908	1.3994289281612813	-1.4022573589048113	-0.29673235523748925	1.168169819904386	-1.4622390659072266	-0.39536670095660076	0.9974688956401438	-1.270552591245623	0.18618357103220487	1.3879112379503518	-1.3810222774987264	0.29333581143595755	1.1303791451973062	-1.397874916488681	0.3579319828556119	0.8962127297135709	-1.35988055076381
8	0.1333333333333333	-0.008600913278347883	0.9083053305821456	-1.3449119403216776	-0.1005676535466784	0.9073086790974033	-1.347494475034724	-0.05768902625133537	0.4915249807282767	-1.4065498403511163	0.022662106855859104	0.16937711201607913	-1.591990697023396	0.0019851458727636194	0.06571025428252589	-1.4536755973087632	-0.04009881848414824	0.0690732466808621	-1.5098109592549813	0.04259914605495623	0.13370478995248627	-1.632862111027562	0.0781476178845424	0.8956593727198465	-1.3563824873483936	0.017785906687117277	0.5293807899769201	-1.1386344310945944	-0.007798113851210144	0.15276928733117764	-1.154617197811907	-0.045029787483587116	0.09880622697639647	-0.9811317811828354	0.007082512450731351	0.09384233833041805	-1.0058409932559749	-0.007745543378332238	0.09327522765867419	-1.185807502721878	0.020553944431655015	1.4743863836929016	-1.3215631923679825	0.028967484290837564	1.6999173003696664	-1.1905259178915695	0.009862950683645611	1.5461577948872018	-1.145637734492493	-0.15864811884615612	1.404236304045619	-1.3918312716285879	-0.2978695337737271	1.180785008192148	-1.4526283636193313	-0.3996480820790417	1.0199071058911318	-1.2486098472329406	0.19545369459967238	1.3828475338391102	-1.3667591844198408	0.29667727823367296	1.1257182058502453	-1.388022023634871	0.3581366015150662	0.8900937221017357	-1.346987192167629
